<svg xmlns="http://www.w3.org/2000/svg" viewBox="0 0 99 98"><linearGradient id="a" gradientUnits="userSpaceOnUse" x1="86.793" y1="106.849" x2="66.01" y2="70.156"><stop offset="0" stop-color="#f1926b"/><stop offset="0" stop-color="#f1926b"/><stop offset=".41" stop-color="#db4c34"/><stop offset=".99" stop-color="#a72126"/><stop offset="1" stop-color="#a72126"/></linearGradient><path fill-rule="evenodd" clip-rule="evenodd" fill="url(#a)" d="M20.322 97.917l72.825-4.942 5.608-73.432-22.19 44.977z"/><linearGradient id="b" gradientUnits="userSpaceOnUse" x1="97.146" y1="76.028" x2="70.363" y2="58.055"><stop offset="0" stop-color="#9a3729"/><stop offset="0" stop-color="#9a3729"/><stop offset=".99" stop-color="#a2372a"/><stop offset="1" stop-color="#a2372a"/></linearGradient><path fill-rule="evenodd" clip-rule="evenodd" fill="url(#b)" d="M69.957 72.237l23.309 20.688-6.26-43.202z"/><linearGradient id="c" gradientUnits="userSpaceOnUse" x1="75.717" y1="107.962" x2="48.933" y2="89.989"><stop offset="0" stop-color="#9a3729"/><stop offset="0" stop-color="#9a3729"/><stop offset=".99" stop-color="#a2372a"/><stop offset="1" stop-color="#a2372a"/></linearGradient><path fill-rule="evenodd" clip-rule="evenodd" fill="url(#c)" d="M20.566 97.822l72.784-4.897-45.856-3.6z"/><linearGradient id="d" gradientUnits="userSpaceOnUse" x1="19.485" y1="63.019" x2="23.637" y2="90.004"><stop offset="0" stop-color="#fff"/><stop offset="0" stop-color="#fff"/><stop offset=".23" stop-color="#e38e69"/><stop offset=".46" stop-color="#d95d36"/><stop offset=".99" stop-color="#a60003"/><stop offset="1" stop-color="#a60003"/></linearGradient><path fill-rule="evenodd" clip-rule="evenodd" fill="url(#d)" d="M6.878 65.693L20.63 97.832l11.456-37.528z"/><linearGradient id="e" gradientUnits="userSpaceOnUse" x1="48.042" y1="37.821" x2="49.572" y2="65.361"><stop offset="0" stop-color="#fff"/><stop offset="0" stop-color="#fff"/><stop offset=".23" stop-color="#e18d65"/><stop offset=".56" stop-color="#c23d28"/><stop offset=".99" stop-color="#b22b23"/><stop offset="1" stop-color="#b22b23"/></linearGradient><path fill-rule="evenodd" clip-rule="evenodd" fill="url(#e)" d="M29.247 59.349l40.705 13.012-10.54-41.288z"/><linearGradient id="f" gradientUnits="userSpaceOnUse" x1="73.385" y1="12.371" x2="77.965" y2="32.107"><stop offset="0" stop-color="#fff"/><stop offset="0" stop-color="#fff"/><stop offset=".18" stop-color="#e08159"/><stop offset=".4" stop-color="#c94729"/><stop offset=".99" stop-color="#b22b23"/><stop offset="1" stop-color="#b22b23"/></linearGradient><path fill-rule="evenodd" clip-rule="evenodd" fill="url(#f)" d="M59.909 34.037l36.454-2.382L67.849 8.366z"/><linearGradient id="g" gradientUnits="userSpaceOnUse" x1="59.4" y1="5.419" x2="79.135" y2="-4.449"><stop offset="0" stop-color="#fff"/><stop offset="0" stop-color="#fff"/><stop offset=".54" stop-color="#c8422a"/><stop offset=".99" stop-color="#c12121"/><stop offset="1" stop-color="#c12121"/></linearGradient><path fill-rule="evenodd" clip-rule="evenodd" fill="url(#g)" d="M55.678-.061l27.351.124-16.771 9.268z"/><linearGradient id="h" gradientUnits="userSpaceOnUse" x1="2.186" y1="56.14" x2="3.81" y2="72.403"><stop offset="0" stop-color="#fff"/><stop offset="0" stop-color="#fff"/><stop offset=".31" stop-color="#d9613a"/><stop offset=".99" stop-color="#c23d25"/><stop offset="1" stop-color="#c23d25"/></linearGradient><path fill-rule="evenodd" clip-rule="evenodd" fill="url(#h)" d="M1.587 50.206L.245 78.283 7.27 65.47z"/><path d="M1.21 49.723l5.718 16.219 24.845-5.574 28.365-26.361L68.142 8.58 55.538-.32 34.109 7.7c-6.752 6.28-19.853 18.705-20.325 18.938-.468.239-8.652 15.707-12.574 23.085z" fill-rule="evenodd" clip-rule="evenodd" fill="#fff"/><linearGradient id="i" gradientUnits="userSpaceOnUse" x1="-8.983" y1="76.8" x2="67.373" y2="-1.716"><stop offset="0" stop-color="#bd0012"/><stop offset="0" stop-color="#bd0012"/><stop offset=".07" stop-color="#fff"/><stop offset=".17" stop-color="#fff"/><stop offset=".27" stop-color="#c95233"/><stop offset=".33" stop-color="#972e29"/><stop offset=".46" stop-color="#af3b24"/><stop offset=".72" stop-color="#b93521"/><stop offset=".99" stop-color="#dc4719"/><stop offset="1" stop-color="#dc4719"/></linearGradient><path d="M21.286 20.588C35.919 6.079 54.783-2.492 62.022 4.811c7.234 7.304-.438 25.054-15.07 39.557S13.689 67.916 6.455 60.612c-7.239-7.299.199-25.521 14.831-40.024z" fill-rule="evenodd" clip-rule="evenodd" fill="url(#i)"/><linearGradient id="j" gradientUnits="userSpaceOnUse" x1="49.506" y1="84.718" x2="26.508" y2="79.042"><stop offset="0" stop-color="#9e2d28"/><stop offset="0" stop-color="#9e2d28"/><stop offset=".54" stop-color="#a72c26"/><stop offset=".99" stop-color="#b22a2d"/><stop offset="1" stop-color="#b22a2d"/></linearGradient><path d="M20.63 97.817L31.996 60.17l37.747 12.127C56.095 85.094 40.916 95.913 20.63 97.817z" fill-rule="evenodd" clip-rule="evenodd" fill="url(#j)"/><linearGradient id="k" gradientUnits="userSpaceOnUse" x1="89.008" y1="57.114" x2="68.576" y2="38.801"><stop offset="0" stop-color="#94362e"/><stop offset="0" stop-color="#94362e"/><stop offset=".99" stop-color="#ab2b25"/><stop offset="1" stop-color="#ab2b25"/></linearGradient><path d="M60.187 33.932l9.69 38.384C81.278 60.329 91.51 47.441 96.522 31.501l-36.335 2.431z" fill-rule="evenodd" clip-rule="evenodd" fill="url(#k)"/><linearGradient id="l" gradientUnits="userSpaceOnUse" x1="96.514" y1="23.514" x2="86.336" y2="12.634"><stop offset="0" stop-color="#90382e"/><stop offset="0" stop-color="#90382e"/><stop offset=".99" stop-color="#ab362b"/><stop offset="1" stop-color="#ab362b"/></linearGradient><path d="M96.423 31.695c3.878-11.704 4.773-28.494-13.514-31.612L67.904 8.371l28.519 23.324z" fill-rule="evenodd" clip-rule="evenodd" fill="url(#l)"/><path d="M.245 78.113c.537 19.316 14.473 19.605 20.41 19.774L6.942 65.862.245 78.113z" fill-rule="evenodd" clip-rule="evenodd" fill="#ab3628"/><radialGradient id="m" cx="71.757" cy="39.153" r="25.039" gradientUnits="userSpaceOnUse"><stop offset="0" stop-color="#b22b23"/><stop offset="0" stop-color="#b22b23"/><stop offset=".99" stop-color="#94312b"/><stop offset="1" stop-color="#94312b"/></radialGradient><path d="M60.242 33.992c8.761 5.385 26.416 16.199 26.774 16.398.557.313 7.612-11.898 9.213-18.799l-35.987 2.401z" fill-rule="evenodd" clip-rule="evenodd" fill="url(#m)"/><radialGradient id="n" cx="37.083" cy="72.147" r="33.286" gradientUnits="userSpaceOnUse"><stop offset="0" stop-color="#af2b24"/><stop offset="0" stop-color="#af2b24"/><stop offset=".99" stop-color="#96322c"/><stop offset="1" stop-color="#96322c"/></radialGradient><path d="M31.981 60.17l15.194 29.315c8.984-4.873 16.02-10.809 22.463-17.168L31.981 60.17z" fill-rule="evenodd" clip-rule="evenodd" fill="url(#n)"/><linearGradient id="o" gradientUnits="userSpaceOnUse" x1="13.506" y1="97.797" x2="5.212" y2="69.657"><stop offset="0" stop-color="#9f4530"/><stop offset="0" stop-color="#9f4530"/><stop offset=".43" stop-color="#ab312b"/><stop offset=".99" stop-color="#b9302a"/><stop offset="1" stop-color="#b9302a"/></linearGradient><path d="M6.883 65.902L4.73 91.538c4.062 5.549 9.651 6.031 15.513 5.598-4.242-10.555-12.714-31.661-13.36-31.234z" fill-rule="evenodd" clip-rule="evenodd" fill="url(#o)"/><linearGradient id="p" gradientUnits="userSpaceOnUse" x1="77.133" y1="4.552" x2="95.728" y2="12.76"><stop offset="0" stop-color="#b93021"/><stop offset="0" stop-color="#b93021"/><stop offset=".44" stop-color="#a2322a"/><stop offset=".99" stop-color="#904131"/><stop offset="1" stop-color="#904131"/></linearGradient><path d="M67.814 8.436l30.185 4.236C96.388 5.846 91.441 1.44 83.009.063L67.814 8.436z" fill-rule="evenodd" clip-rule="evenodd" fill="url(#p)"/></svg>