<svg version="1.1" id="レイヤー_1" xmlns="http://www.w3.org/2000/svg" x="0" y="0" viewBox="0 0 88 84" xml:space="preserve"><style>.st1{fill:#fe7a00}</style><path fill="#251401" d="M3 3.116h82v78H3z"/><path class="st1" d="M82 6.116v72H6v-72h76m6-6H0v84h88v-84z"/><path class="st1" d="M51.595 59.398h-6.422L41.545 47.56H29.233l-3.474 11.839H19.5l12.312-40.247h7.471l12.312 40.246zM40.547 42.877L37.39 32.356c-.737-2.63-1.422-5.473-2.001-7.945h-.107c-.578 2.472-1.208 5.419-1.893 7.891L30.18 42.877h10.367z"/><g><path class="st1" d="M60.923 25.937c-2.103 0-3.526-1.579-3.526-3.524 0-2.052 1.474-3.579 3.577-3.579 2.108 0 3.526 1.527 3.526 3.579 0 1.945-1.367 3.524-3.577 3.524zm3.05 33.461h-6.1v-29.04h6.1v29.04z"/></g></svg>