<svg xmlns="http://www.w3.org/2000/svg" viewBox="0 0 100 100"><path fill="#ffa417" d="M0 0h100v100H0z"/><path d="M70.176 68.837c-.239 1.503-.274 2.528-.274 5.499v14.243c0 2.8-.751 4.952-2.357 6.558-1.741 1.776-4.508 2.766-7.855 2.766-3.722 0-6.524-1.058-8.436-3.176-.99-1.093-1.468-1.947-2.254-3.996l6.66-2.289c.716 2.664 1.741 3.621 3.927 3.621 2.289 0 3.347-1.128 3.347-3.483V74.371c0-2.903-.068-3.963-.273-5.534h7.515zM80.674 87.998c.136 1.229.375 1.844.887 2.528.82 1.023 2.255 1.605 3.996 1.605 2.631 0 4.201-1.161 4.201-3.074 0-1.058-.546-1.98-1.434-2.39-.717-.342-1.571-.581-5.124-1.4-3.141-.683-4.234-1.093-5.498-1.981-2.152-1.502-3.314-3.791-3.314-6.558 0-5.259 4.235-8.572 10.964-8.572 4.337 0 7.651 1.332 9.494 3.893.854 1.128 1.264 2.152 1.708 4.099l-7.24.786c-.41-2.221-1.639-3.143-4.235-3.143-2.083 0-3.619 1.128-3.619 2.698 0 .957.512 1.674 1.605 2.186.683.309.683.309 4.714 1.128 2.596.546 4.235 1.128 5.533 1.947C95.769 83.284 97 85.573 97 88.715c0 2.561-.82 4.747-2.392 6.284-1.98 1.913-4.986 2.903-8.983 2.903-2.902 0-5.772-.615-7.616-1.673-1.708-.957-2.971-2.425-3.689-4.372-.341-.82-.512-1.606-.751-3.177l7.105-.682z"/></svg>