<svg version="1.1" id="レイヤー_1" xmlns="http://www.w3.org/2000/svg" x="0" y="0" viewBox="0 0 88 84" xml:space="preserve"><style>.st2{fill:#ecfbff}</style><path d="M15 81C8.383 81 3 75.617 3 69V15C3 8.383 8.383 3 15 3h58c6.617 0 12 5.383 12 12v54c0 6.617-5.383 12-12 12H15z" fill="#251401"/><path d="M73 6c4.963 0 9 4.037 9 9v54c0 4.963-4.037 9-9 9H15c-4.963 0-9-4.037-9-9V15c0-4.963 4.037-9 9-9h58m0-6H15C6.75 0 0 6.75 0 15v54c0 8.25 6.75 15 15 15h58c8.25 0 15-6.75 15-15V15c0-8.25-6.75-15-15-15z" fill="#a5e5ff"/><g><path class="st2" d="M21.686 20.963c2.337-.408 5.446-.765 9.465-.765 4.782 0 8.396 1.019 10.738 3.106 2.188 1.881 3.514 4.834 3.514 8.396 0 9.468-7.534 12.725-14.559 12.725-1.223 0-2.341-.052-3.307-.255v15.269h-5.852V20.963zm5.851 18.475c.866.255 1.935.305 3.307.305 5.396 0 8.653-2.799 8.653-7.787 0-4.733-3.257-7.126-7.99-7.126-1.832 0-3.208.205-3.97.356v14.252zM65.113 36.691c-1.119-.713-3.054-1.579-5.346-1.579-2.644 0-4.07 1.527-4.07 3.411 0 1.933 1.272 2.901 4.683 4.376 4.629 1.884 7.074 4.428 7.074 8.5 0 5.396-4.124 8.601-10.485 8.601-2.951 0-5.752-.763-7.634-1.884l1.322-4.376c1.426.866 4.02 1.884 6.411 1.884 3.158 0 4.683-1.527 4.683-3.666 0-2.136-1.169-3.307-4.53-4.733-4.986-1.985-7.174-4.785-7.174-8.042 0-4.683 3.817-8.398 9.718-8.398 2.752 0 5.143.765 6.668 1.629l-1.32 4.277z"/></g></svg>