<?xml version="1.0" encoding="utf-8"?>
<!-- Generator: Adobe Illustrator 24.2.1, SVG Export Plug-In . SVG Version: 6.00 Build 0)  -->
<svg version="1.1" id="レイヤー_1" xmlns="http://www.w3.org/2000/svg" xmlns:xlink="http://www.w3.org/1999/xlink" x="0px"
	 y="0px" viewBox="0 0 1743.9 2165.1" style="enable-background:new 0 0 1743.9 2165.1;" xml:space="preserve">
<style type="text/css">
	.st0{fill:#4DBA87;}
	.st1{fill:#435466;}
</style>
<path class="st0" d="M1073.3,0L872,348.8L670.6,0H0l872,1510.3L1743.9,0H1073.3z"/>
<path class="st1" d="M1073.3,0L872,348.8L670.6,0H348.8L872,906.1L1395.1,0H1073.3z"/>
<g>
	<path class="st1" d="M511.5,1797c32.1-32.8,73-49.2,122.6-49.2c66.4,0,114.9,22,145.6,66c16.9,24.7,26,49.5,27.3,74.4h-83.3
		c-5.3-19.1-12.1-33.5-20.4-43.3c-14.8-17.3-36.8-26-66-26c-29.7,0-53.1,12.2-70.2,36.7c-17.1,24.4-25.7,59-25.7,103.7
		c0,44.7,9,78.2,27.1,100.5c18.1,22.3,41.1,33.4,68.9,33.4c28.6,0,50.4-9.6,65.4-28.7c8.3-10.3,15.2-25.7,20.6-46.3h82.8
		c-7.1,43.5-25.4,78.8-54.7,106c-29.3,27.2-66.9,40.8-112.8,40.8c-56.7,0-101.3-18.4-133.8-55.2c-32.5-37-48.7-87.6-48.7-152
		C456.1,1888.3,474.5,1834.7,511.5,1797z"/>
	<path class="st1" d="M873.4,1755.3h83.3v327h199.1v71.7H873.4V1755.3z"/>
	<path class="st1" d="M1287.8,2154h-82.8v-398.7h82.8V2154z"/>
</g>
</svg>
