<?xml version="1.0" encoding="utf-8"?>
<!-- Generator: Adobe Illustrator 24.0.2, SVG Export Plug-In . SVG Version: 6.00 Build 0)  -->
<svg version="1.1" id="レイヤー_1" xmlns="http://www.w3.org/2000/svg" xmlns:xlink="http://www.w3.org/1999/xlink" x="0px"
	 y="0px" viewBox="0 0 100 100" style="enable-background:new 0 0 100 100;" xml:space="preserve">
<style type="text/css">
	.st0{fill:#0170BA;}
	.st1{fill:#29A8E0;}
	.st2{fill:#FFFFFF;}
	.st3{fill:#EBEBEB;}
</style>
<path class="st0" d="M13.937,90.003L5.913,0h88.174l-8.033,89.99L49.946,100L13.937,90.003z"/>
<path class="st1" d="M50,92.348l29.177-8.089l6.865-76.9H50V92.348z"/>
<path class="st2" d="M49.961,40.74v11.038h13.593l-1.282,14.316l-12.311,3.323v11.484l22.63-6.271l0.166-1.864l2.594-29.061
	l0.27-2.965h-2.975L49.961,40.74z M49.961,18.399v11.038h26.664l0.222-2.482l0.503-5.596l0.264-2.961H49.961z"/>
<polygon class="st3" points="25.297,51.779 50,51.779 50,40.74 35.394,40.74 24.313,40.74 "/>
<polygon class="st3" points="50,18.399 22.32,18.399 22.584,21.36 23.305,29.437 34.384,29.437 50,29.437 "/>
<polygon class="st2" points="75.617,40.74 64.537,40.74 65.546,29.437 76.625,29.437 "/>
<polygon class="st3" points="37.657,66.102 36.872,57.298 25.792,57.298 27.337,74.63 49.949,80.908 50,80.893 50,69.409 
	49.951,69.422 "/>
</svg>
