<?xml version="1.0" encoding="utf-8"?>
<!-- Generator: Adobe Illustrator 24.0.2, SVG Export Plug-In . SVG Version: 6.00 Build 0)  -->
<svg version="1.1" id="レイヤー_1" xmlns="http://www.w3.org/2000/svg" xmlns:xlink="http://www.w3.org/1999/xlink" x="0px"
	 y="0px" viewBox="0 0 100 100" style="enable-background:new 0 0 100 100;" xml:space="preserve">
<style type="text/css">
	.st0{fill:#E44D26;}
	.st1{fill:#F16529;}
	.st2{fill:#EBEBEB;}
	.st3{fill:#FFFFFF;}
</style>
<path class="st0" d="M13.937,90.003L5.913,0h88.174l-8.033,89.99L49.946,100L13.937,90.003z"/>
<path class="st1" d="M50,92.348l29.177-8.089l6.865-76.9H50V92.348z"/>
<path class="st2" d="M50,40.74H35.394l-1.009-11.303H50V18.399H22.32l0.264,2.961l2.713,30.419H50V40.74z M50,69.409l-0.049,0.012
	l-12.294-3.319l-0.785-8.804H25.792l1.546,17.332l22.612,6.278L50,80.893V69.409z"/>
<path class="st3" d="M49.961,40.74v11.038h13.593l-1.282,14.316l-12.311,3.323v11.484l22.63-6.271l0.166-1.864l2.594-29.061
	l0.27-2.965h-2.975L49.961,40.74z M49.961,18.399v11.038h26.664l0.222-2.482l0.503-5.596l0.264-2.961H49.961z"/>
</svg>
