<?xml version="1.0" encoding="utf-8"?>
<!-- Generator: Adobe Illustrator 24.0.2, SVG Export Plug-In . SVG Version: 6.00 Build 0)  -->
<svg version="1.1" id="レイヤー_1" xmlns="http://www.w3.org/2000/svg" xmlns:xlink="http://www.w3.org/1999/xlink" x="0px"
	 y="0px" viewBox="0 0 98 126" style="enable-background:new 0 0 98 126;" xml:space="preserve">
<style type="text/css">
	.st0{fill:#A62C39;}
	.st1{fill:url(#SVGID_1_);}
	.st2{opacity:0.668;fill:url(#SVGID_2_);enable-background:new    ;}
	.st3{fill:#FFFFFF;fill-opacity:0.44;}
	.st4{fill-opacity:0.362;}
	.st5{opacity:0.5;fill:#83222D;enable-background:new    ;}
	.st6{fill:#FFFFFF;}
	.st7{fill:none;stroke:#5E000E;stroke-width:3;}
</style>
<g>
	<path class="st0" d="M1.872,123.987c0,0,0.188-29.538,0.188-59.564c0-58.159-4.901-62.491,21.194-62.491h72.635v83.889
		c0,27.615,5.162,38.433-23.859,38.433C43.009,124.255,1.872,123.987,1.872,123.987z"/>
	<g transform="translate(-273.273 -435.955)">
		
			<linearGradient id="SVGID_1_" gradientUnits="userSpaceOnUse" x1="939.1382" y1="-1635.5377" x2="961.6502" y2="-1647.3297" gradientTransform="matrix(1 0 0 1 -594.046 2121.001)">
			<stop  offset="0" style="stop-color:#FFFFFF"/>
			<stop  offset="1" style="stop-color:#C0815E"/>
		</linearGradient>
		<path class="st1" d="M335.031,448.859c0,0,4.655,0.932,8.688,7.757c4.034,6.826,25.444,59.886,25.444,59.886v-43.131
			l-19.858-32.27l5.585,6.827l10.55-8.689l-13.653-0.93L335.031,448.859L335.031,448.859z"/>
	</g>
	<g transform="translate(-273.273 -435.955)">
		
			<radialGradient id="SVGID_2_" cx="925.8196" cy="-1139.6287" r="38.4057" gradientTransform="matrix(1 0 0 1.582 -594.046 2301.0498)" gradientUnits="userSpaceOnUse">
			<stop  offset="0" style="stop-color:#FFFFFF"/>
			<stop  offset="1" style="stop-color:#A94436"/>
		</radialGradient>
		<path class="st2" d="M293.763,438.619c0,0,30.719,20.479,45.613,24.513c14.894,4.035,30.408,8.378,30.408,8.378l-35.373,86.88
			l15.204,0.621l19.86-49.026l-0.622-71.676L293.763,438.619L293.763,438.619z"/>
		<path class="st3" d="M322.309,530.154l31.956,30.733l-59.571-1.256c0,0-1.861-18.927-1.241-28.856l3.723-9.929L322.309,530.154
			L322.309,530.154z"/>
	</g>
	<path class="st4" d="M78.513,124.298L49.657,94.51l-26.375-9.929L2.803,38.969L24.524,2.665L9.94,2.044L4.044,7.63l-2.172,4.344
		L0.32,124.919C0.32,124.919,78.513,124.298,78.513,124.298z"/>
	<path class="st5" d="M96.201,76.823c0,0-29.167,9.309-46.543,17.997s-26.685,29.787-26.685,29.787s37.234-1.861,51.197-1.241
		c13.963,0.621,20.479,0.621,21.72-18.927S96.201,76.823,96.201,76.823z"/>
	<g>
		<path class="st6" d="M10.863,95.355v18.326h4.674v-4.773l4.254,4.254h7.172l-5.688-5.688c0,0,4.093-0.067,4.402-5.984
			c0-5.43-4.097-6.134-8.83-6.134L10.863,95.355L10.863,95.355z M15.76,100.326h4.031v3.265H15.76V100.326z M35.99,95.429
			c-2.559-0.015-6.108,0.223-6.108,5.045v12.737h4.797v-3.116h4.65v3.042h4.822V99.783c0-4.189-4.654-4.353-7.147-4.353
			C37.004,95.43,35.99,95.429,35.99,95.429z M34.753,100.029h4.501v5.021h-4.501C34.753,105.05,34.753,100.029,34.753,100.029z
			 M48.959,95.44h4.964v17.531h-4.964V95.44z M59.12,95.674v17.531h11.947v-4.654h-7.059V95.596L59.12,95.674z M86.891,95.518v4.732
			h-7.99v1.707h3.413c1.785,0,5.508-0.077,5.508,5.508s-2.561,5.896-7.758,5.896h-6.283v-4.267h7.214
			c2.172,0,2.292-0.708,2.292-1.324c0-0.615-1.11-0.902-3.369-0.902s-6.447-1.11-6.447-5.454s2.172-5.973,6.516-5.973
			C84.332,95.44,86.891,95.518,86.891,95.518L86.891,95.518z"/>
	</g>
	<g>
		<path class="st6" d="M15.215,90.166h41.269c0,0-9.154-20.789-6.826-39.873c2.326-19.082,17.376-27.771,25.909-28.702
			s13.187,4.344,13.187,4.344l1.861-2.792c0,0-12.256-12.412-27.771-11.015c-15.514,1.395-26.219,11.635-32.89,24.046
			c-6.671,12.412-10.55,21.101-13.188,34.132C14.129,83.339,15.215,90.166,15.215,90.166L15.215,90.166z M6.993,69.377l8.066,0.62
			l-1.396,8.068l-7.602-0.931C6.061,77.134,6.993,69.377,6.993,69.377z M19.714,52.31l2.172-6.05l-7.137-2.793l-2.327,6.516
			L19.714,52.31z M29.798,31.521l4.189-4.965l-5.43-3.568l-4.343,4.81L29.798,31.521z M40.813,12.284l3.724,4.499l5.12-2.947
			l-3.724-4.189L40.813,12.284z M58.966,7.164l0.93,4.499l6.361-0.155l-0.62-4.034L58.966,7.164z"/>
		<path class="st6" d="M80.53,11.973l-0.155,2.792l4.343,2.328l0.931-1.396L80.53,11.973z M79.6,23.919v2.327l4.189,0.465V24.85
			L79.6,23.919z M66.257,25.935l2.017,3.724l2.948-2.327l-0.621-2.482C70.601,24.85,66.257,25.935,66.257,25.935z M59.896,30.745
			l3.103,4.655l-1.862,3.257l-4.499-4.965C56.638,33.692,59.896,30.745,59.896,30.745z M53.69,43.623l-2.017,4.033l5.275,4.5
			l1.241-5.121C58.189,47.035,53.69,43.623,53.69,43.623z M51.518,57.74l-0.31,5.43l6.516,2.792l-0.311-5.119
			C57.413,60.843,51.518,57.74,51.518,57.74z M53.38,76.978l1.552,5.586l8.223,0.465l-2.949-6.051
			C60.206,76.978,53.38,76.978,53.38,76.978z"/>
	</g>
	<path class="st7" d="M1.872,123.987c0,0,0.188-29.538,0.188-59.564c0-58.159-4.901-62.491,21.194-62.491h72.635v83.889
		c0,27.615,3.921,38.433-23.859,38.433C44.25,124.255,1.872,123.987,1.872,123.987z"/>
</g>
</svg>
